<svg width="28" height="28" viewBox="0 0 28 28" fill="none" xmlns="http://www.w3.org/2000/svg">
<g clip-path="url(#clip0_17_199)">
<path d="M27.9623 14.0163C27.9623 21.7256 21.6905 27.9975 13.9812 27.9975C6.27186 27.9975 0 21.7256 0 14.0163C0 6.30702 6.27186 0.0351562 13.9812 0.0351562C21.6905 0.0351562 27.9623 6.30702 27.9623 14.0163Z" fill="#00A055"/>
<path d="M20.4846 9.89288C21.152 10.5887 21.1312 11.6951 20.4344 12.3642L15.0691 17.5186C14.2908 18.2865 13.2608 18.671 12.2286 18.671C11.1964 18.671 10.1615 18.2865 9.37285 17.5164L7.5706 15.8993C6.85297 15.2538 6.79344 14.1495 7.43898 13.4319C8.08451 12.7153 9.18662 12.6536 9.90807 13.3002L11.7628 14.9665C12.0391 15.2347 12.4094 15.2369 12.6317 15.0157L18.0144 9.84482C18.7102 9.1758 19.8145 9.19601 20.4857 9.89397H20.4846V9.89288Z" fill="white"/>
</g>
<defs>
<clipPath id="clip0_17_199">
<rect width="27.9623" height="27.9623" fill="white" transform="translate(0 0.0351562)"/>
</clipPath>
</defs>
</svg>
