<svg width="28" height="29" viewBox="0 0 28 29" fill="none" xmlns="http://www.w3.org/2000/svg">
<g clip-path="url(#clip0_17_219)">
<path d="M13.9812 0.111328C6.2593 0.111328 0 6.37063 0 14.0925C0 21.8144 6.2593 28.0737 13.9812 28.0737C21.703 28.0737 27.9623 21.8144 27.9623 14.0925C27.9541 6.37445 21.6992 0.11952 13.9812 0.111328Z" fill="#E7332F"/>
<path d="M18.7128 9.35993C18.0307 8.67726 16.9242 8.67671 16.241 9.35939C16.241 9.35939 16.2404 9.35939 16.2399 9.35993L13.9811 11.6204L11.7217 9.35993C11.039 8.67726 9.93198 8.67726 9.24931 9.35993C8.56664 10.0426 8.56664 11.1496 9.24931 11.8323L11.5098 14.0917L9.24931 16.3505C8.56664 17.0332 8.56664 18.1402 9.24931 18.8229C9.93198 19.5056 11.039 19.5056 11.7217 18.8229L13.9811 16.5624L16.2399 18.8229C16.9226 19.5056 18.0296 19.5056 18.7123 18.8229C19.3949 18.1402 19.3949 17.0332 18.7123 16.3505L16.4518 14.0911L18.7123 11.8318C19.3949 11.1496 19.3955 10.0432 18.7128 9.35993C18.7128 9.35993 18.7128 9.35994 18.7123 9.35939L18.7128 9.35993Z" fill="white"/>
</g>
<defs>
<clipPath id="clip0_17_219">
<rect width="27.9623" height="27.9623" fill="white" transform="translate(0 0.111328)"/>
</clipPath>
</defs>
</svg>
